<?xml version="1.0" encoding="UTF-8"?>
<svg width="21px" height="15px" viewBox="0 0 21 15" version="1.1" xmlns="http://www.w3.org/2000/svg" xmlns:xlink="http://www.w3.org/1999/xlink">
    <title>icon-WiFi</title>
    <g id="Symbols" stroke="none" stroke-width="1" fill="none" fill-rule="evenodd">
        <g id="Menubar-/-Light" transform="translate(-1179.000000, -3.000000)" fill="#444143">
            <g id="Menubar---Light">
                <path d="M1191.5,16 L1189.5,18 L1187.5,16 C1188.40909,15.5454545 1188.02361,15.5041322 1189.12289,15.5003757 L1189.87467,15.5004319 C1190.9096,15.5045351 1190.59524,15.547619 1191.5,16 Z M1189.50204,11.7009926 C1191.20612,11.7009926 1192.91837,12.4184277 1194.22245,13.8472351 L1194.22245,13.8472351 L1193.62653,14.5 C1192.48776,13.2470147 1190.99592,12.624564 1189.50204,12.6225431 C1188.00612,12.624564 1186.51429,13.2470147 1185.37551,14.5 L1185.37551,14.5 L1184.78163,13.8472351 C1186.08367,12.4184277 1187.79388,11.7009926 1189.50204,11.7009926 Z M1189.5,7.57624599 C1192.16939,7.57624599 1194.83878,8.69584894 1196.87551,10.9330339 L1196.87551,10.9330339 L1196.28163,11.5857988 C1194.40612,9.52645691 1191.95714,8.50183832 1189.5,8.49981738 C1187.0449,8.49981738 1184.59388,9.52645691 1182.72041,11.5837779 L1182.72041,11.5837779 L1182.12653,10.931013 L1182.37393,10.6681482 C1184.37681,8.60807207 1186.93935,7.57624599 1189.5,7.57624599 Z M1189.5,3.50000202 C1193.11837,3.49798107 1196.73673,5.01570999 1199.5,8.04712593 L1199.5,8.04712593 L1198.90612,8.69989083 C1196.30816,5.84429701 1192.90816,4.42155246 1189.5,4.41953152 C1186.09592,4.42155246 1182.69184,5.84631796 1180.09388,8.70191177 L1180.09388,8.70191177 L1179.5,8.04914687 C1182.26122,5.01773093 1185.88163,3.50000202 1189.5,3.50000202 Z" id="icon-WiFi"></path>
            </g>
        </g>
    </g>
</svg>