<?xml version="1.0" encoding="UTF-8"?>
<svg width="19px" height="11px" viewBox="0 0 19 11" version="1.1" xmlns="http://www.w3.org/2000/svg" xmlns:xlink="http://www.w3.org/1999/xlink">
    <title>icon-NotificationCentre</title>
    <g id="Symbols" stroke="none" stroke-width="1" fill="none" fill-rule="evenodd">
        <g id="Menubar-/-Light" transform="translate(-1398.000000, -6.000000)" fill="#444143">
            <g id="Menubar---Light">
                <path d="M1416.80503,14.1230769 L1416.80503,16.1538462 L1402.71698,16.1538462 L1402.71698,14.1230769 L1416.80503,14.1230769 Z M1400.7044,14.1230769 L1400.7044,16.1538462 L1398.69182,16.1538462 L1398.69182,14.1230769 L1400.7044,14.1230769 Z M1413.78616,10.0615385 L1413.78616,12.0923077 L1402.71698,12.0923077 L1402.71698,10.0615385 L1413.78616,10.0615385 Z M1400.7044,10.0615385 L1400.7044,12.0923077 L1398.69182,12.0923077 L1398.69182,10.0615385 L1400.7044,10.0615385 Z M1416.80503,6 L1416.80503,8.03076923 L1402.71698,8.03076923 L1402.71698,6 L1416.80503,6 Z M1400.7044,6 L1400.7044,8.03076923 L1398.69182,8.03076923 L1398.69182,6 L1400.7044,6 Z" id="icon-NotificationCentre"></path>
            </g>
        </g>
    </g>
</svg>