<?xml version="1.0" encoding="UTF-8"?>
<svg width="13px" height="16px" viewBox="0 0 13 16" version="1.1" xmlns="http://www.w3.org/2000/svg" xmlns:xlink="http://www.w3.org/1999/xlink">
    <title>icon-Apple</title>
    <g id="Symbols" stroke="none" stroke-width="1" fill="none" fill-rule="evenodd">
        <g id="Menubar-/-Light" transform="translate(-21.000000, -2.000000)" fill="#000000">
            <g id="Menubar---Light">
                <path d="M33.7275392,14.4688577 C33.4941375,15.0278532 33.217866,15.5424055 32.8977722,16.0154776 C32.4614539,16.6603964 32.1042064,17.1068027 31.8288876,17.3546964 C31.4020959,17.7615977 30.944819,17.9699865 30.4551517,17.981838 C30.1036201,17.981838 29.6796864,17.8781374 29.1862084,17.6677734 C28.6911109,17.458397 28.2361205,17.3546964 27.8200938,17.3546964 C27.3837755,17.3546964 26.9158288,17.458397 26.4153012,17.6677734 C25.9140114,17.8781374 25.5101788,17.9877637 25.2014217,17.9986276 C24.7318555,18.0193677 24.2638136,17.8050532 23.796629,17.3546964 C23.4984464,17.0850749 23.12548,16.6228667 22.6786824,15.9680717 C22.1993038,15.2688335 21.8051883,14.4579938 21.4964312,13.5335773 C21.1657629,12.535089 21,11.5682046 21,10.6321342 C21,9.55987028 21.2234941,8.63505872 21.6711491,7.8600698 C22.0229664,7.2375701 22.4910084,6.74652321 23.0767991,6.38604028 C23.6625898,6.02555735 24.2955372,5.84185919 24.9771655,5.83010646 C25.3501319,5.83010646 25.8392276,5.94970779 26.4470248,6.18476241 C27.0531071,6.42060713 27.4422688,6.54020846 27.6128902,6.54020846 C27.7404514,6.54020846 28.1727686,6.40036083 28.90565,6.12155444 C29.5987102,5.86299436 30.1836436,5.75593587 30.6628316,5.79810743 C31.9613073,5.90674612 32.9368313,6.43739675 33.5855928,7.39341724 C32.4243002,8.12287667 31.8498461,9.14457419 31.861278,10.4552506 C31.8717573,11.476158 32.2290048,12.3257126 32.9311153,13.0002601 C33.2493038,13.3133371 33.6046461,13.5553051 34,13.7271517 C33.9142606,13.9849217 33.8237579,14.2318278 33.7275392,14.4688577 L33.7275392,14.4688577 Z M30.7495237,2.32008909 C30.7495237,3.12027231 30.4675363,3.86740035 29.9054668,4.55893501 C29.2271728,5.38103362 28.4067419,5.85608099 27.5170526,5.78112029 C27.505716,5.68512319 27.4991426,5.58408921 27.4991426,5.47791958 C27.4991426,4.70974526 27.8217133,3.88764665 28.3945479,3.21546944 C28.6805364,2.87513404 29.0442621,2.59215 29.4853437,2.36640868 C29.9254727,2.14403515 30.3417851,2.02105615 30.7333284,2 C30.7447604,2.10696961 30.7495237,2.21394909 30.7495237,2.32007921 L30.7495237,2.32008909 Z" id="icon-Apple"></path>
            </g>
        </g>
    </g>
</svg>