<?xml version="1.0" encoding="UTF-8"?>
<svg width="22px" height="16px" viewBox="0 0 22 16" version="1.1" xmlns="http://www.w3.org/2000/svg" xmlns:xlink="http://www.w3.org/1999/xlink">
    <title>icon-Volume</title>
    <g id="Symbols" stroke="none" stroke-width="1" fill="none" fill-rule="evenodd">
        <g id="Menubar-/-Light" transform="translate(-1209.000000, -3.000000)" fill="#444143">
            <g id="Menubar---Light">
                <path d="M1227.3932,3.3581 C1231.1752,7.8931 1231.1752,13.9851 1227.3932,18.5171 C1227.2942,18.6361 1227.1512,18.6971 1227.0092,18.6971 C1226.8962,18.6971 1226.7822,18.6591 1226.6892,18.5811 C1226.4772,18.4041 1226.4482,18.0891 1226.6252,17.8771 C1230.0872,13.7271 1230.0872,8.1501 1226.6252,3.9991 C1226.4482,3.7871 1226.4772,3.4711 1226.6892,3.2951 C1226.9002,3.1171 1227.2152,3.1441 1227.3932,3.3581 Z M1217.9888,5.2254 L1217.9888,16.7744 C1217.9888,16.9944 1217.8458,17.0654 1217.6708,16.9334 L1214.23486,13.976226 C1214.16563,13.9915284 1214.09376,13.9996 1214.0201,13.9996 L1210.9891,13.9996 C1210.4391,13.9996 1209.9891,13.5496 1209.9891,12.9996 L1209.9891,8.9996 C1209.9891,8.4496 1210.4391,7.9996 1210.9891,7.9996 L1214.0201,7.9996 C1214.08324,7.9996 1214.14506,8.00553015 1214.20503,8.01686096 L1217.6708,5.0654 C1217.8458,4.9344 1217.9888,5.0054 1217.9888,5.2254 Z M1224.1196,5.3735 C1226.8936,8.6495 1226.8936,13.2255 1224.1196,16.5015 C1224.0196,16.6185 1223.8796,16.6785 1223.7376,16.6785 C1223.6236,16.6785 1223.5086,16.6395 1223.4146,16.5595 C1223.2036,16.3815 1223.1776,16.0665 1223.3556,15.8555 C1225.8086,12.9595 1225.8086,8.9155 1223.3556,6.0205 C1223.1776,5.8095 1223.2036,5.4945 1223.4146,5.3155 C1223.6256,5.1385 1223.9396,5.1635 1224.1196,5.3735 Z M1220.8225,7.3972 C1222.6565,9.4812 1222.6565,12.3942 1220.8225,14.4782 C1220.7245,14.5902 1220.5865,14.6482 1220.4475,14.6482 C1220.3305,14.6482 1220.2125,14.6072 1220.1175,14.5242 C1219.9105,14.3412 1219.8895,14.0252 1220.0725,13.8182 C1221.5635,12.1222 1221.5635,9.7532 1220.0725,8.0572 C1219.8895,7.8502 1219.9105,7.5342 1220.1175,7.3512 C1220.3245,7.1692 1220.6395,7.1902 1220.8225,7.3972 Z" id="icon-Volume"></path>
            </g>
        </g>
    </g>
</svg>