<?xml version="1.0" encoding="UTF-8"?>
<svg width="15px" height="14px" viewBox="0 0 15 14" version="1.1" xmlns="http://www.w3.org/2000/svg" xmlns:xlink="http://www.w3.org/1999/xlink">
    <title>icon-Spotlight</title>
    <g id="Symbols" stroke="none" stroke-width="1" fill="none" fill-rule="evenodd">
        <g id="Menubar-/-Light" transform="translate(-1369.000000, -4.000000)" fill="#444143">
            <g id="Menubar---Light">
                <path d="M1374.73585,4 C1377.51464,4 1379.7673,6.27301589 1379.7673,9.07692308 C1379.7673,10.2350195 1379.38301,11.3025494 1378.73608,12.1567625 L1383.54933,16.9708733 L1382.83135,17.6888586 L1378.04446,12.9018673 C1377.15995,13.6815115 1376.00257,14.1538462 1374.73585,14.1538462 C1371.95706,14.1538462 1369.7044,11.8808303 1369.7044,9.07692308 C1369.7044,6.27301589 1371.95706,4 1374.73585,4 Z M1374.73585,5.01538462 C1372.51282,5.01538462 1370.71069,6.83379732 1370.71069,9.07692308 C1370.71069,11.3200488 1372.51282,13.1384615 1374.73585,13.1384615 C1376.95888,13.1384615 1378.76101,11.3200488 1378.76101,9.07692308 C1378.76101,6.83379732 1376.95888,5.01538462 1374.73585,5.01538462 Z" id="icon-Spotlight"></path>
            </g>
        </g>
    </g>
</svg>