<?xml version="1.0" encoding="UTF-8"?>
<svg width="6px" height="6px" viewBox="0 0 6 6" version="1.1" xmlns="http://www.w3.org/2000/svg" xmlns:xlink="http://www.w3.org/1999/xlink">
    <title>icon-close</title>
    <g id="Symbols" stroke="none" stroke-width="1" fill="none" fill-rule="evenodd">
        <g id="Traffic-Lights-/-Mouse-Over-1" transform="translate(-3.000000, -3.000000)" fill="#760E0E" fill-rule="nonzero">
            <g id="Traffic-Lights-(Mouse-Over-1)">
                <path d="M3.14644661,3.14644661 C3.34170876,2.95118446 3.65829124,2.95118446 3.85355339,3.14644661 L3.85355339,3.14644661 L6,5.293 L8.14644661,3.14644661 C8.32001296,2.97288026 8.58943736,2.95359511 8.7843055,3.08859116 L8.85355339,3.14644661 C9.04881554,3.34170876 9.04881554,3.65829124 8.85355339,3.85355339 L8.85355339,3.85355339 L6.707,6 L8.85355339,8.14644661 C9.02711974,8.32001296 9.04640489,8.58943736 8.91140884,8.7843055 L8.85355339,8.85355339 C8.65829124,9.04881554 8.34170876,9.04881554 8.14644661,8.85355339 L8.14644661,8.85355339 L6,6.707 L3.85355339,8.85355339 C3.67998704,9.02711974 3.41056264,9.04640489 3.2156945,8.91140884 L3.14644661,8.85355339 C2.95118446,8.65829124 2.95118446,8.34170876 3.14644661,8.14644661 L3.14644661,8.14644661 L5.293,6 L3.14644661,3.85355339 C2.97288026,3.67998704 2.95359511,3.41056264 3.08859116,3.2156945 Z" id="icon-close"></path>
            </g>
        </g>
    </g>
</svg>