<?xml version="1.0" encoding="UTF-8"?>
<svg width="18px" height="14px" viewBox="0 0 18 14" version="1.1" xmlns="http://www.w3.org/2000/svg" xmlns:xlink="http://www.w3.org/1999/xlink">
    <title>icon-AirPlay</title>
    <g id="Symbols" stroke="none" stroke-width="1" fill="none" fill-rule="evenodd">
        <g id="Menubar-/-Light" transform="translate(-1151.000000, -4.000000)" fill="#444143">
            <g id="Menubar---Light">
                <path d="M1159.5917,11.6264 C1159.9737,11.2454 1160.0627,11.2414 1160.4527,11.6304 L1160.4527,11.6304 L1165.2997,17.3214 C1165.6267,17.6474 1165.4447,17.9694 1164.9897,17.9694 L1164.9897,17.9694 L1155.0487,17.9694 C1154.5937,17.9694 1154.4127,17.6474 1154.7357,17.3214 L1154.7357,17.3214 Z M1168.9876,4.0005 L1168.9876,14.0005 L1164.9566,14.0005 L1164.0496,13.0005 L1168.0186,13.0005 L1168.0186,5.0005 L1151.9876,5.0005 L1151.9876,13.0005 L1155.8626,13.0005 L1154.9566,14.0005 L1150.9996,14.0005 L1150.9996,6.2225 L1151.0036,4.0005 L1168.9876,4.0005 Z" id="icon-AirPlay"></path>
            </g>
        </g>
    </g>
</svg>