<?xml version="1.0" encoding="UTF-8"?>
<svg width="23px" height="12px" viewBox="0 0 23 12" version="1.1" xmlns="http://www.w3.org/2000/svg" xmlns:xlink="http://www.w3.org/1999/xlink">
    <title>icon-Battery</title>
    <g id="Symbols" stroke="none" stroke-width="1" fill="none" fill-rule="evenodd">
        <g id="Menubar-/-Light" transform="translate(-1243.000000, -5.000000)" fill="#444143">
            <g id="Menubar---Light">
                <path d="M1261.49675,5 C1262.33456,5 1263,5.6695784 1263,6.49554521 L1263,6.49554521 L1263,15.5044548 C1263,16.3204455 1262.32697,17 1261.49675,17 L1261.49675,17 L1244.50325,17 C1243.66544,17 1243,16.3304216 1243,15.5044548 L1243,15.5044548 L1243,6.49554521 C1243,5.67955446 1243.67303,5 1244.50325,5 L1244.50325,5 Z M1261.49979,6.04615385 L1244.50021,6.04615385 C1244.22395,6.04615385 1244,6.27275593 1244,6.55345113 L1244,15.4927027 C1244,15.7728753 1244.22759,16 1244.50021,16 L1261.49979,16 C1261.77605,16 1262,15.7733979 1262,15.4927027 L1262,6.55345113 C1262,6.27327858 1261.77241,6.04615385 1261.49979,6.04615385 Z M1260.50361,7 C1260.77382,7 1261,7.22405275 1261,7.50043583 L1261,7.50043583 L1261,14.4995642 C1261,14.7692032 1260.77776,15 1260.50361,15 L1260.50361,15 L1245.49639,15 C1245.22618,15 1245,14.7759472 1245,14.4995642 L1245,14.4995642 L1245,7.50043583 C1245,7.23079681 1245.22224,7 1245.49639,7 L1245.49639,7 Z M1264.50314,8.5 L1266,10 L1266,12 L1264.50314,13.5 L1264,13.5 L1264,8.5 L1264.50314,8.5 Z" id="icon-Battery"></path>
            </g>
        </g>
    </g>
</svg>