<?xml version="1.0" encoding="UTF-8"?>
<svg width="64px" height="64px" viewBox="0 0 64 64" version="1.1" xmlns="http://www.w3.org/2000/svg" xmlns:xlink="http://www.w3.org/1999/xlink">
    <title>ico-ai</title>
    <defs>
        <rect id="path-1" x="0" y="0" width="64" height="64"></rect>
    </defs>
    <g id="页面-1" stroke="none" stroke-width="1" fill="none" fill-rule="evenodd">
        <g id="桌面端-HD" transform="translate(-1141.000000, -209.000000)">
            <g id="ico-ai" transform="translate(1141.000000, 209.000000)">
                <mask id="mask-2" fill="white">
                    <use xlink:href="#path-1"></use>
                </mask>
                <g id="base"></g>
                <g id="编组" mask="url(#mask-2)">
                    <g transform="translate(4.000000, 5.000000)">
                        <path d="M9.91666667,0 L46.0833333,0 C51.5666667,0 56,4.43333333 56,9.91666667 L56,44.6833333 C56,50.1666667 51.5666667,54.6 46.0833333,54.6 L9.91666667,54.6 C4.43333333,54.6 0,50.1666667 0,44.6833333 L0,9.91666667 C0,4.43333333 4.43333333,0 9.91666667,0 Z" id="路径" fill="#330000" fill-rule="nonzero"></path>
                        <g id="Ai" stroke-width="1" fill="none" fill-rule="evenodd" transform="translate(11.433333, 11.900000)">
                            <path d="M15.7033333,20.86 L7.02333333,20.86 L5.25,26.3433333 C5.20333333,26.5533333 5.01666667,26.6933333 4.80666667,26.67 L0.42,26.67 C0.163333333,26.67 0.0933333333,26.53 0.163333333,26.25 L7.67666667,4.62 C7.74666667,4.38666667 7.81666667,4.13 7.91,3.85 C8.00333333,3.36 8.05,2.84666667 8.05,2.33333333 C8.02666667,2.21666667 8.12,2.1 8.23666667,2.07666667 C8.26,2.07666667 8.28333333,2.07666667 8.30666667,2.07666667 L14.28,2.07666667 C14.4666667,2.07666667 14.56,2.14666667 14.5833333,2.26333333 L23.1,26.2966667 C23.17,26.5533333 23.1,26.67 22.8666667,26.67 L17.99,26.67 C17.8266667,26.6933333 17.6633333,26.5766667 17.6166667,26.4133333 L15.7033333,20.86 Z M8.37666667,16.1233333 L14.3033333,16.1233333 C14.1633333,15.6333333 13.9766667,15.05 13.7666667,14.4433333 C13.5566667,13.8133333 13.3466667,13.1366667 13.1366667,12.4366667 C12.9033333,11.7133333 12.6933333,11.0133333 12.46,10.29 C12.2266667,9.56666667 12.0166667,8.89 11.83,8.21333333 C11.6433333,7.56 11.48,6.95333333 11.3166667,6.39333333 L11.27,6.39333333 C11.06,7.39666667 10.8033333,8.4 10.4766667,9.40333333 C10.1266667,10.5233333 9.77666667,11.69 9.40333333,12.8566667 C9.07666667,14.0466667 8.72666667,15.1433333 8.37666667,16.1233333 L8.37666667,16.1233333 Z" id="形状" fill="#FF9A00" fill-rule="nonzero"></path>
                            <path d="M28.1866667,6.06666667 C27.4166667,6.09 26.67,5.78666667 26.11,5.25 C25.5733333,4.66666667 25.2933333,3.89666667 25.3166667,3.10333333 C25.2933333,2.31 25.5966667,1.56333333 26.1566667,1.02666667 C26.7166667,0.49 27.4633333,0.21 28.2333333,0.21 C29.1433333,0.21 29.8433333,0.49 30.3566667,1.02666667 C30.87,1.58666667 31.15,2.33333333 31.1266667,3.10333333 C31.15,3.89666667 30.87,4.66666667 30.31,5.25 C29.7733333,5.81 28.98,6.11333333 28.1866667,6.06666667 Z M25.5733333,26.32 L25.5733333,8.35333333 C25.5733333,8.12 25.6666667,8.02666667 25.8766667,8.02666667 L30.4966667,8.02666667 C30.7066667,8.02666667 30.8,8.14333333 30.8,8.35333333 L30.8,26.32 C30.8,26.5766667 30.7066667,26.6933333 30.4966667,26.6933333 L25.9233333,26.6933333 C25.69,26.6933333 25.5733333,26.5533333 25.5733333,26.32 Z" id="形状" fill="#FF9A00" fill-rule="nonzero"></path>
                        </g>
                    </g>
                </g>
            </g>
        </g>
    </g>
</svg>