<?xml version="1.0" encoding="UTF-8"?>
<svg width="64px" height="64px" viewBox="0 0 64 64" version="1.1" xmlns="http://www.w3.org/2000/svg" xmlns:xlink="http://www.w3.org/1999/xlink">
    <title>ico-postman</title>
    <defs>
        <rect id="path-1" x="0" y="0" width="64" height="64"></rect>
        <linearGradient x1="23.7452147%" y1="8.42637212%" x2="60.2867406%" y2="76.6279993%" id="linearGradient-3">
            <stop stop-color="#FFA568" offset="0%"></stop>
            <stop stop-color="#FF6229" offset="100%"></stop>
        </linearGradient>
    </defs>
    <g id="页面-1" stroke="none" stroke-width="1" fill="none" fill-rule="evenodd">
        <g id="桌面端-HD" transform="translate(-776.000000, -25.000000)">
            <g id="ico-postman" transform="translate(776.000000, 25.000000)">
                <mask id="mask-2" fill="white">
                    <use xlink:href="#path-1"></use>
                </mask>
                <g id="base"></g>
                <g id="icon" mask="url(#mask-2)" fill-rule="nonzero">
                    <g transform="translate(4.000000, 4.000000)">
                        <path d="M31.5619618,0.232106101 C16.221486,-1.74249969 2.18583236,9.10020174 0.228599244,24.4386574 C-1.72863387,39.7771131 9.09786281,53.8109185 24.4383386,55.7678939 C39.7788143,57.7424997 53.814468,46.8997983 55.7717011,31.5613426 C55.7717011,31.5437122 55.7717011,31.5260818 55.7717011,31.5260818 C57.7289342,16.1876261 46.8848048,2.18908148 31.5619618,0.232106101 Z" id="路径" fill="#FFFFFF"></path>
                        <path d="M42.7592814,15.0311377 C42.6191617,15.0934132 42.5413174,15.2646707 42.6035928,15.4047904 C42.6035928,15.4203593 42.6191617,15.4203593 42.6191617,15.4359281 C42.7748503,15.7473054 42.7437126,16.1365269 42.5101796,16.4011976 C42.4011976,16.5101796 42.3856287,16.697006 42.4946108,16.805988 C42.4946108,16.805988 42.4946108,16.805988 42.5101796,16.8215569 C42.5724551,16.8371257 42.6502994,16.8371257 42.7125749,16.8215569 C42.7904192,16.8215569 42.8838323,16.7748503 42.9305389,16.7125749 C43.3197605,16.2610778 43.3976048,15.6227545 43.1173653,15.0934132 C43.039521,14.9844311 42.8838323,14.9532934 42.7592814,15.0311377 Z M31.302263,2.21740823 C17.0627342,0.375124689 4.04105989,10.4452339 2.21427824,24.6838999 C0.387496594,38.9225659 10.4426024,51.9590638 24.6821312,53.7857347 C38.9216599,55.6124057 51.9433343,45.5579091 53.7857294,31.3192431 C55.6125111,17.0805771 45.5574052,4.04407919 31.302263,2.21740823 C31.3178765,2.21740823 31.3178765,2.21740823 31.302263,2.21740823 Z M36.6576998,18.4232583 C36.1736807,18.4388709 35.7208887,18.6262218 35.3773913,18.9696984 L25.7282369,28.6182681 L23.6672525,26.5574085 C33.1602717,17.0805771 34.8933722,16.9869017 36.6576998,18.4232583 Z M26.1185749,28.9617447 L35.7365022,19.4068504 C36.2673618,18.8916355 37.1104918,18.8916355 37.6413514,19.4068504 C37.9067812,19.6722641 38.0473029,20.0313533 38.0316894,20.3904425 C38.0160759,20.7651442 37.8599407,21.1086208 37.5788974,21.3584219 L27.4144969,30.3200385 L26.1185749,28.9617447 Z M26.8367967,30.4137139 L24.4479284,31.0226042 C24.4010878,31.0538294 24.3542473,31.0538294 24.3074067,31.0226042 C24.2761797,30.9757665 24.2761797,30.9133162 24.3074067,30.8664785 L25.7594639,29.4145093 L26.8367967,30.4137139 Z M20.7475245,29.4145093 L23.292528,26.86966 L25.2129908,28.8368441 L20.8568192,29.7735984 C20.7631381,29.789211 20.669457,29.7267607 20.6538434,29.6330853 C20.6382299,29.570635 20.6538434,29.5237973 20.700684,29.4769596 L20.7475245,29.4145093 Z M12.8626978,42.6383581 C12.8002437,42.6227455 12.7377896,42.5759078 12.7221761,42.5290701 C12.7065626,42.4666198 12.7065626,42.4041695 12.7221761,42.3573318 L14.767547,40.2964722 L17.4218451,42.9349969 L12.8626978,42.6383581 Z M18.1088399,39.9061579 L18.1088399,39.9061579 C17.9058642,40.0154459 17.7965696,40.2340219 17.8434101,40.4525979 L18.2805886,42.3261066 C18.3118157,42.4510072 18.2493616,42.5759078 18.1556805,42.6383581 C18.0619994,42.7164209 17.9214777,42.7164209 17.8434101,42.6383581 L15.189112,39.9061579 L23.3393686,31.7407826 L27.2895887,30.8977037 L29.1788245,32.7868249 C25.8063045,35.5970879 22.0902871,37.9858115 18.1244535,39.8749328 L18.1244535,39.9061579 L18.1088399,39.9061579 L18.1088399,39.9061579 Z M29.5691624,32.4745735 L27.7579943,30.6635151 L37.9223948,21.7175111 C38.0160759,21.6394482 38.109757,21.5457728 38.1878246,21.4364848 C37.8599407,24.3404233 33.7691989,28.4621424 29.5691624,32.4745735 Z M37.5008298,18.4700961 C35.9863185,16.8932262 36.0487726,14.3952147 37.6257379,12.8807952 C39.0621816,11.5068888 41.2793012,11.4132133 42.8250395,12.6622191 L39.3276114,16.1438228 C39.2339303,16.2531108 39.2339303,16.4092365 39.3276114,16.5185245 L42.0443636,19.2194995 C40.5142388,19.968903 38.6718436,19.6566516 37.4852162,18.4388709 L37.5008298,18.4700961 Z M43.0748558,18.4700961 C42.8874936,18.6418344 42.7001314,18.8135726 42.4815421,18.9540858 L39.8740846,16.3467862 L43.199764,13.0213083 C44.6362077,14.566953 44.5893671,16.9712891 43.0748558,18.4700961 Z" id="形状" fill="url(#linearGradient-3)"></path>
                    </g>
                </g>
            </g>
        </g>
    </g>
</svg>