<?xml version="1.0" encoding="UTF-8"?>
<svg width="13px" height="13px" viewBox="0 0 13 13" version="1.1" xmlns="http://www.w3.org/2000/svg" xmlns:xlink="http://www.w3.org/1999/xlink">
    <title>Ico-search</title>
    <g id="Symbols" stroke="none" stroke-width="1" fill="none" fill-rule="evenodd">
        <g id="Finder-/-Search" transform="translate(-123.000000, -5.000000)" fill="#777777">
            <path d="M128.5,5.5 C131.261424,5.5 133.5,7.73857625 133.5,10.5 C133.5,11.7006593 133.0768,12.802475 132.37143,13.6644179 L135.62132,16.9142136 L134.914214,17.6213203 L131.664418,14.3714301 C130.802475,15.0768003 129.700659,15.5 128.5,15.5 C125.738576,15.5 123.5,13.2614237 123.5,10.5 C123.5,7.73857625 125.738576,5.5 128.5,5.5 Z M128.5,6.5 C126.290861,6.5 124.5,8.290861 124.5,10.5 C124.5,12.709139 126.290861,14.5 128.5,14.5 C130.709139,14.5 132.5,12.709139 132.5,10.5 C132.5,8.290861 130.709139,6.5 128.5,6.5 Z" id="Ico-search"></path>
        </g>
    </g>
</svg>