<?xml version="1.0" encoding="UTF-8"?>
<svg width="14px" height="14px" viewBox="0 0 14 14" version="1.1" xmlns="http://www.w3.org/2000/svg" xmlns:xlink="http://www.w3.org/1999/xlink">
    <title>Ico-performTasks</title>
    <g id="Symbols" stroke="none" stroke-width="1" fill="none" fill-rule="evenodd">
        <g id="Finder-/-Button-(Perform-Tasks)" transform="translate(-6.000000, -4.000000)" fill="#737373">
            <path d="M13.4953156,4 C13.785965,4 14,4.22308192 14,4.49826741 L14,4.49826741 L14.0005395,6.61198518 C14.5022283,6.72620349 14.9723517,6.92443501 15.3951957,7.1911184 L16.8903124,5.69547402 C17.0871433,5.49864318 17.4024149,5.50292001 17.5995065,5.70001155 L17.5995065,5.70001155 L18.2999885,6.40049352 C18.5055086,6.60601369 18.4991115,6.91510205 18.304526,7.10968758 L18.304526,7.10968758 L16.8092926,8.60516541 C17.07589,9.02789292 17.2741044,9.49802921 17.3882514,10.0000423 L19.5017326,10 C19.7800934,10 20,10.2259549 20,10.5046844 L20,10.5046844 L20,11.4953156 C20,11.785965 19.7769181,12 19.5017326,12 L19.5017326,12 L17.3880148,12.0005395 C17.2737965,12.5022283 17.075565,12.9723517 16.8088816,13.3951957 L18.304526,14.8903124 C18.5013568,15.0871433 18.49708,15.4024149 18.2999885,15.5995065 L18.2999885,15.5995065 L17.5995065,16.2999885 C17.3939863,16.5055086 17.0848979,16.4991115 16.8903124,16.304526 L16.8903124,16.304526 L15.3948346,14.8092926 C14.9723868,15.0757135 14.502593,15.273842 14.0009543,15.3880247 L14,17.5017326 C14,17.7800934 13.7740451,18 13.4953156,18 L13.4953156,18 L12.5046844,18 C12.214035,18 12,17.7769181 12,17.5017326 L12,17.5017326 L12.0004511,15.3882402 C11.4983905,15.2740574 11.0279265,15.0757405 10.6048043,14.8088816 L9.10968758,16.304526 C8.91285674,16.5013568 8.59758505,16.49708 8.40049352,16.2999885 L8.40049352,16.2999885 L7.70001155,15.5995065 C7.49449137,15.3939863 7.50088849,15.0848979 7.69547402,14.8903124 L7.69547402,14.8903124 L9.19070736,13.3948346 C8.92428647,12.9723868 8.72615798,12.502593 8.61197535,12.0009543 L6.49826741,12 C6.21990657,12 6,11.7740451 6,11.4953156 L6,11.4953156 L6,10.5046844 C6,10.214035 6.22308192,10 6.49826741,10 L6.49826741,10 L8.61175979,10.0004511 C8.72594261,9.49839053 8.92425951,9.02792654 9.1911184,8.60480433 L7.69547402,7.10968758 C7.49864318,6.91285674 7.50292001,6.59758505 7.70001155,6.40049352 L7.70001155,6.40049352 L8.40049352,5.70001155 C8.60601369,5.49449137 8.91510205,5.50088849 9.10968758,5.69547402 L9.10968758,5.69547402 L10.6051654,7.19070736 C11.0278929,6.92411003 11.4980292,6.72589559 12.0000423,6.61174861 L12,4.49826741 C12,4.21990657 12.2259549,4 12.5046844,4 L12.5046844,4 Z M13,9 C11.9456382,9 11.0818349,9.8088611 11.0054857,10.8497808 L11,11 C11,12.0543618 11.8088611,12.9181651 12.8497808,12.9945143 L13,13 C14.0543618,13 14.9181651,12.1911389 14.9945143,11.1502192 L15,11 C15,9.8954305 14.1122704,9 13,9 Z" id="Ico-performTasks"></path>
        </g>
    </g>
</svg>