<?xml version="1.0" encoding="UTF-8"?>
<svg width="14px" height="13px" viewBox="0 0 14 13" version="1.1" xmlns="http://www.w3.org/2000/svg" xmlns:xlink="http://www.w3.org/1999/xlink">
    <title>Ico-arrangement</title>
    <g id="Symbols" stroke="none" stroke-width="1" fill="none" fill-rule="evenodd">
        <g id="Finder-/-Button-(Arrangement)" transform="translate(-6.000000, -5.000000)" fill="#737373">
            <path d="M18.9906311,14 C19.5480902,14 20,14.4433532 20,15.0093689 L20,16.9906311 C20,17.5480902 19.5566468,18 18.9906311,18 L17.0093689,18 C16.4519098,18 16,17.5566468 16,16.9906311 L16,15.0093689 C16,14.4519098 16.4433532,14 17.0093689,14 L18.9906311,14 Z M13.9906311,14 C14.5480902,14 15,14.4433532 15,15.0093689 L15,16.9906311 C15,17.5480902 14.5566468,18 13.9906311,18 L12.0093689,18 C11.4519098,18 11,17.5566468 11,16.9906311 L11,15.0093689 C11,14.4519098 11.4433532,14 12.0093689,14 L13.9906311,14 Z M8.9906311,14 C9.54809015,14 10,14.4433532 10,15.0093689 L10,16.9906311 C10,17.5480902 9.55664682,18 8.9906311,18 L7.0093689,18 C6.45190985,18 6,17.5566468 6,16.9906311 L6,15.0093689 C6,14.4519098 6.44335318,14 7.0093689,14 L8.9906311,14 Z M18.4953156,15 L17.5046844,15 C17.214035,15 17,15.2259549 17,15.5046844 L17,15.5046844 L17,16.4953156 C17,16.785965 17.2259549,17 17.5046844,17 L17.5046844,17 L18.4953156,17 C18.785965,17 19,16.7740451 19,16.4953156 L19,16.4953156 L19,15.5046844 C19,15.214035 18.7740451,15 18.4953156,15 L18.4953156,15 Z M13.4953156,15 L12.5046844,15 C12.214035,15 12,15.2259549 12,15.5046844 L12,15.5046844 L12,16.4953156 C12,16.785965 12.2259549,17 12.5046844,17 L12.5046844,17 L13.4953156,17 C13.785965,17 14,16.7740451 14,16.4953156 L14,16.4953156 L14,15.5046844 C14,15.214035 13.7740451,15 13.4953156,15 L13.4953156,15 Z M8.49531555,15 L7.50468445,15 C7.21403503,15 7,15.2259549 7,15.5046844 L7,15.5046844 L7,16.4953156 C7,16.785965 7.22595492,17 7.50468445,17 L7.50468445,17 L8.49531555,17 C8.78596497,17 9,16.7740451 9,16.4953156 L9,16.4953156 L9,15.5046844 C9,15.214035 8.77404508,15 8.49531555,15 L8.49531555,15 Z M20,12 L20,13 L6,13 L6,12 L20,12 Z M18.9906311,7 C19.5480902,7 20,7.44335318 20,8.0093689 L20,9.9906311 C20,10.5480902 19.5566468,11 18.9906311,11 L17.0093689,11 C16.4519098,11 16,10.5566468 16,9.9906311 L16,8.0093689 C16,7.45190985 16.4433532,7 17.0093689,7 L18.9906311,7 Z M13.9906311,7 C14.5480902,7 15,7.44335318 15,8.0093689 L15,9.9906311 C15,10.5480902 14.5566468,11 13.9906311,11 L12.0093689,11 C11.4519098,11 11,10.5566468 11,9.9906311 L11,8.0093689 C11,7.45190985 11.4433532,7 12.0093689,7 L13.9906311,7 Z M8.9906311,7 C9.54809015,7 10,7.44335318 10,8.0093689 L10,9.9906311 C10,10.5480902 9.55664682,11 8.9906311,11 L7.0093689,11 C6.45190985,11 6,10.5566468 6,9.9906311 L6,8.0093689 C6,7.45190985 6.44335318,7 7.0093689,7 L8.9906311,7 Z M18.4953156,8 L17.5046844,8 C17.214035,8 17,8.22595492 17,8.50468445 L17,8.50468445 L17,9.49531555 C17,9.78596497 17.2259549,10 17.5046844,10 L17.5046844,10 L18.4953156,10 C18.785965,10 19,9.77404508 19,9.49531555 L19,9.49531555 L19,8.50468445 C19,8.21403503 18.7740451,8 18.4953156,8 L18.4953156,8 Z M13.4953156,8 L12.5046844,8 C12.214035,8 12,8.22595492 12,8.50468445 L12,8.50468445 L12,9.49531555 C12,9.78596497 12.2259549,10 12.5046844,10 L12.5046844,10 L13.4953156,10 C13.785965,10 14,9.77404508 14,9.49531555 L14,9.49531555 L14,8.50468445 C14,8.21403503 13.7740451,8 13.4953156,8 L13.4953156,8 Z M8.49531555,8 L7.50468445,8 C7.21403503,8 7,8.22595492 7,8.50468445 L7,8.50468445 L7,9.49531555 C7,9.78596497 7.22595492,10 7.50468445,10 L7.50468445,10 L8.49531555,10 C8.78596497,10 9,9.77404508 9,9.49531555 L9,9.49531555 L9,8.50468445 C9,8.21403503 8.77404508,8 8.49531555,8 L8.49531555,8 Z M20,5 L20,6 L6,6 L6,5 L20,5 Z" id="Ico-arrangement"></path>
        </g>
    </g>
</svg>