<?xml version="1.0" encoding="UTF-8"?>
<svg width="10px" height="10px" viewBox="0 0 10 10" version="1.1" xmlns="http://www.w3.org/2000/svg" xmlns:xlink="http://www.w3.org/1999/xlink">
    <title>ico-iconView</title>
    <g id="Symbols" stroke="none" stroke-width="1" fill="none" fill-rule="evenodd">
        <g id="Finder-/-Buttons-(View)" transform="translate(-9.000000, -6.000000)" fill="#737373">
            <path d="M17.9906311,12 C18.5480902,12 19,12.4433532 19,13.0093689 L19,14.9906311 C19,15.5480902 18.5566468,16 17.9906311,16 L16.0093689,16 C15.4519098,16 15,15.5566468 15,14.9906311 L15,13.0093689 C15,12.4519098 15.4433532,12 16.0093689,12 L17.9906311,12 Z M11.9906311,12 C12.5480902,12 13,12.4433532 13,13.0093689 L13,14.9906311 C13,15.5480902 12.5566468,16 11.9906311,16 L10.0093689,16 C9.45190985,16 9,15.5566468 9,14.9906311 L9,13.0093689 C9,12.4519098 9.44335318,12 10.0093689,12 L11.9906311,12 Z M17.4953156,13 L16.5046844,13 C16.214035,13 16,13.2259549 16,13.5046844 L16,13.5046844 L16,14.4953156 C16,14.785965 16.2259549,15 16.5046844,15 L16.5046844,15 L17.4953156,15 C17.785965,15 18,14.7740451 18,14.4953156 L18,14.4953156 L18,13.5046844 C18,13.214035 17.7740451,13 17.4953156,13 L17.4953156,13 Z M11.4953156,13 L10.5046844,13 C10.214035,13 10,13.2259549 10,13.5046844 L10,13.5046844 L10,14.4953156 C10,14.785965 10.2259549,15 10.5046844,15 L10.5046844,15 L11.4953156,15 C11.785965,15 12,14.7740451 12,14.4953156 L12,14.4953156 L12,13.5046844 C12,13.214035 11.7740451,13 11.4953156,13 L11.4953156,13 Z M17.9906311,6 C18.5480902,6 19,6.44335318 19,7.0093689 L19,8.9906311 C19,9.54809015 18.5566468,10 17.9906311,10 L16.0093689,10 C15.4519098,10 15,9.55664682 15,8.9906311 L15,7.0093689 C15,6.45190985 15.4433532,6 16.0093689,6 L17.9906311,6 Z M11.9906311,6 C12.5480902,6 13,6.44335318 13,7.0093689 L13,8.9906311 C13,9.54809015 12.5566468,10 11.9906311,10 L10.0093689,10 C9.45190985,10 9,9.55664682 9,8.9906311 L9,7.0093689 C9,6.45190985 9.44335318,6 10.0093689,6 L11.9906311,6 Z M17.4953156,7 L16.5046844,7 C16.214035,7 16,7.22595492 16,7.50468445 L16,7.50468445 L16,8.49531555 C16,8.78596497 16.2259549,9 16.5046844,9 L16.5046844,9 L17.4953156,9 C17.785965,9 18,8.77404508 18,8.49531555 L18,8.49531555 L18,7.50468445 C18,7.21403503 17.7740451,7 17.4953156,7 L17.4953156,7 Z M11.4953156,7 L10.5046844,7 C10.214035,7 10,7.22595492 10,7.50468445 L10,7.50468445 L10,8.49531555 C10,8.78596497 10.2259549,9 10.5046844,9 L10.5046844,9 L11.4953156,9 C11.785965,9 12,8.77404508 12,8.49531555 L12,8.49531555 L12,7.50468445 C12,7.21403503 11.7740451,7 11.4953156,7 L11.4953156,7 Z" id="ico-iconView"></path>
        </g>
    </g>
</svg>