<?xml version="1.0" encoding="UTF-8"?>
<svg width="16px" height="10px" viewBox="0 0 16 10" version="1.1" xmlns="http://www.w3.org/2000/svg" xmlns:xlink="http://www.w3.org/1999/xlink">
    <title>Ico-columnView</title>
    <g id="Symbols" stroke="none" stroke-width="1" fill="none" fill-rule="evenodd">
        <g id="Finder-/-Buttons-(View)" transform="translate(-61.000000, -6.000000)" fill="#737373">
            <path d="M75.9991283,6 C76.5518945,6 77,6.4556644 77,6.99539757 L77,15.0046024 C77,15.5543453 76.5553691,16 75.9991283,16 L62.0008717,16 C61.4481055,16 61,15.5443356 61,15.0046024 L61,6.99539757 C61,6.44565467 61.4446309,6 62.0008717,6 L75.9991283,6 Z M75.5095215,7 L72,7 L72,15 L75.5095215,15 C75.7849426,15 76,14.7759472 76,14.4995642 L76,14.4995642 L76,7.50043583 C76,7.23079681 75.7804053,7 75.5095215,7 L75.5095215,7 Z M71,7 L67,7 L67,15 L71,15 L71,7 Z M66,7 L62.4904785,7 C62.2150574,7 62,7.22405275 62,7.50043583 L62,7.50043583 L62,14.4995642 C62,14.7692032 62.2195947,15 62.4904785,15 L62.4904785,15 L66,15 L66,7 Z" id="Ico-columnView"></path>
        </g>
    </g>
</svg>