<?xml version="1.0" encoding="UTF-8"?>
<svg width="12px" height="15px" viewBox="0 0 12 15" version="1.1" xmlns="http://www.w3.org/2000/svg" xmlns:xlink="http://www.w3.org/1999/xlink">
    <title>Ico-share</title>
    <g id="Symbols" stroke="none" stroke-width="1" fill="none" fill-rule="evenodd">
        <g id="Finder-/-Button-(Share)" transform="translate(-13.000000, -3.000000)" fill="#737373">
            <path d="M17.5,8 L17.5,9 L15.0096658,9 C14.7224731,9 14.5,9.22405275 14.5,9.50043583 L14.5,9.50043583 L14.5,16.4995642 C14.5,16.7692032 14.7281852,17 15.0096658,17 L15.0096658,17 L22.9903342,17 C23.2775269,17 23.5,16.7759472 23.5,16.4995642 L23.5,16.4995642 L23.5,9.50043583 C23.5,9.23079681 23.2718148,9 22.9903342,9 L22.9903342,9 L20.5,9 L20.5,8 L23.5044225,8 C24.0542648,8 24.5,8.4556644 24.5,8.99539757 L24.5,17.0046024 C24.5,17.5543453 24.055163,18 23.5044225,18 L14.4955775,18 C13.9457352,18 13.5,17.5443356 13.5,17.0046024 L13.5,8.99539757 C13.5,8.44565467 13.944837,8 14.4955775,8 L17.5,8 Z M19,3.5 L22,6.5 L21.5,7 L19.5,5 L19.5,13 L18.5,13 L18.5,5 L16.5,7 L16,6.5 L19,3.5 Z" id="Ico-share"></path>
        </g>
    </g>
</svg>